<?xml version="1.0" standalone="no"?>
<!DOCTYPE svg PUBLIC "-//W3C//DTD SVG 20010904//EN"
 "http://www.w3.org/TR/2001/REC-SVG-20010904/DTD/svg10.dtd">
<svg version="1.0" xmlns="http://www.w3.org/2000/svg"
 width="200.000000pt" height="200.000000pt" viewBox="0 0 200.000000 200.000000"
 preserveAspectRatio="xMidYMid meet">

<g transform="translate(0.000000,200.000000) scale(0.100000,-0.100000)"
fill="#000000" stroke="none">
<path d="M0 1000 l0 -1000 1000 0 1000 0 0 1000 0 1000 -1000 0 -1000 0 0
-1000z m1215 725 c171 -46 300 -155 379 -317 61 -124 60 -132 -9 -147 -56 -13
-75 -9 -75 13 0 36 -74 157 -128 208 -103 99 -198 132 -372 132 -312 0 -479
-157 -521 -490 -30 -242 30 -484 151 -604 90 -91 210 -134 370 -134 153 0 258
35 345 115 121 112 129 292 18 390 l-36 31 -17 -66 c-42 -159 -151 -246 -308
-246 -85 0 -128 12 -188 53 -126 84 -138 275 -23 371 66 56 112 69 262 74 93
3 137 8 137 16 0 6 -9 29 -19 52 -24 52 -74 84 -144 91 -66 7 -117 -9 -162
-49 l-34 -29 -50 33 c-28 18 -51 36 -51 40 0 20 68 80 117 104 75 37 186 44
270 18 107 -34 180 -125 204 -256 11 -62 14 -66 55 -87 62 -34 133 -108 163
-171 23 -48 26 -68 26 -160 0 -88 -4 -113 -23 -154 -54 -117 -171 -223 -295
-266 -167 -59 -394 -48 -555 25 -236 108 -368 391 -348 745 20 376 193 613
492 675 88 18 286 13 369 -10z"/>
<path d="M945 965 c-155 -56 -108 -226 62 -224 68 0 112 19 144 59 33 41 65
148 49 165 -18 17 -209 17 -255 0z"/>
</g>
</svg>
